#!OML:ASF F:\VICON\USERDATA\INSTALL\rory3\rory3.ASF
:FULLY-SPECIFIED
:DEGREES
3588
root 0.152073 18.8428 2.48152 -6.37067 12.344 -0.850783
lowerback 20.1943 -6.84885 -8.34791
upperback 8.41232 -10.3686 0.963007
thorax -0.283949 -5.45232 7.59783
lowerneck -16.7908 -0.525661 -5.59624
upperneck 3.83132 -0.441071 10.5201
head 3.90464 0.292896 4.15302
rclavicle 1.04958e-013 -3.73715e-014
rhumerus -35.0633 -41.0606 -23.4379
rradius 69.4147
rwrist -30.8195
rhand -23.7715 7.56464
rfingers 7.12502
rthumb 2.69803 -22.398
lclavicle 1.04958e-013 -3.73715e-014
lhumerus 37.0348 10.5288 81.2496
lradius 137.214
lwrist 35.3712
lhand -24.8882 12.6933
lfingers 7.12502
lthumb 1.61955 42.6669
rfemur -75.2281 -6.83663 7.15646
rtibia 116.082
rfoot -8.06819 -6.89806
rtoes -5.82053
lfemur -3.05951 4.29686 -25.402
ltibia 21.1059
lfoot -11.7735 9.38434
ltoes 7.60834
3589
root 0.135777 18.8376 2.50885 -6.50627 12.3552 -0.905645
lowerback 19.8021 -6.80014 -8.33888
upperback 8.29102 -10.2824 1.04445
thorax -0.220335 -5.41212 7.61999
lowerneck -16.5873 -0.586486 -5.60145
upperneck 3.97248 -0.52661 10.3844
head 3.92113 0.240141 4.10332
rclavicle 4.17448e-014 -1.51076e-014
rhumerus -35.0882 -41.1876 -23.0462
rradius 69.5695
rwrist -31.1856
rhand -24.1023 7.76377
rfingers 7.12502
rthumb 2.37855 -22.2027
lclavicle 4.17448e-014 -1.51076e-014
lhumerus 36.6971 11.2823 80.1058
lradius 136.778
lwrist 35.4856
lhand -24.8653 12.8786
lfingers 7.12502
lthumb 1.64168 42.852
rfemur -73.1139 -6.55736 6.82647
rtibia 115.012
rfoot -8.3853 -7.24395
rtoes -5.60788
lfemur -2.88754 3.97926 -25.3044
ltibia 21.1934
lfoot -11.9845 9.76295
ltoes 6.92243
3590
root 0.119983 18.8258 2.53743 -6.64091 12.33 -0.888257
lowerback 19.4244 -6.74119 -8.34523
upperback 8.11735 -10.1904 1.0702
thorax -0.230367 -5.36123 7.59885
lowerneck -16.1175 -0.594281 -5.66847
upperneck 3.97805 -0.535396 10.3373
head 3.84866 0.220109 4.09421
rclavicle -1.19271e-015 2.3059e-014
rhumerus -35.1895 -41.2818 -22.6466
rradius 69.7296
rwrist -31.6635
rhand -24.7146 8.18992
rfingers 7.12502
rthumb 1.78718 -21.7823
lclavicle -1.19271e-015 2.3059e-014
lhumerus 36.1791 11.955 78.8655
lradius 136.307
lwrist 35.7029
lhand -24.8165 12.5652
lfingers 7.12502
lthumb 1.68876 42.5383
rfemur -70.9738 -6.12873 6.41816
rtibia 113.901
rfoot -8.68592 -7.61177
rtoes -5.75004
lfemur -2.73793 3.52282 -25.3027
ltibia 21.3755
lfoot -12.3374 10.2116
ltoes 7.08506
3591
root 0.105083 18.8205 2.565 -6.7869 12.3203 -0.920769
lowerback 19.0695 -6.67495 -8.29057
upperback 7.95516 -10.0785 1.09996
thorax -0.25306 -5.29825 7.54974
lowerneck -15.8908 -0.621868 -5.76232
upperneck 4.20997 -0.582969 10.3976
head 3.88803 0.196447 4.12532
rclavicle 1.05356e-013 -3.73715e-014
rhumerus -35.3978 -41.564 -22.1352
rradius 69.897
rwrist -31.8544
rhand -24.8212 8.23992
rfingers 7.12502
rthumb 1.68428 -21.7332
lclavicle 1.05356e-013 -3.73715e-014
lhumerus 35.7081 12.501 77.6273
lradius 135.735
lwrist 35.8473
lhand -24.6755 12.4043
lfingers 7.12502
lthumb 1.82501 42.3762
rfemur -68.8109 -5.55833 6.01845
rtibia 112.609
rfoot -8.78438 -7.99811
rtoes -5.92266
lfemur -2.58379 2.90442 -25.2866
ltibia 21.6053
lfoot -12.7073 10.7837
ltoes 7.36162
3592
root 0.0891 18.8161 2.59422 -6.8978 12.3671 -1.05123
lowerback 18.6257 -6.63223 -8.18083
upperback 7.82168 -9.9791 1.18152
thorax -0.195394 -5.24733 7.51155
lowerneck -15.8107 -0.665786 -5.77111
upperneck 4.5556 -0.664303 10.3606
head 3.98701 0.157791 4.11151
rclavicle 1.64991e-014 -2.14687e-014
rhumerus -35.5987 -41.9276 -21.554
rradius 70.0564
rwrist -31.8002
rhand -24.3567 8.0451
rfingers 7.12502
rthumb 2.13288 -21.924
lclavicle 1.64991e-014 -2.14687e-014
lhumerus 35.3381 13.0792 76.429
lradius 135.162
lwrist 35.9047
lhand -24.6833 12.5663
lfingers 7.12502
lthumb 1.81744 42.5383
rfemur -66.6146 -5.01891 5.75052
rtibia 111.196
rfoot -8.86649 -8.3853
rtoes -6.15271
lfemur -2.46943 2.39205 -25.1455
ltibia 21.8099
lfoot -13.0631 11.1757
ltoes 7.49538
3593
root 0.071726 18.8093 2.62627 -7.05212 12.4517 -1.12196
lowerback 18.2455 -6.59351 -8.17678
upperback 7.68755 -9.90731 1.27752
thorax -0.141915 -5.21343 7.55849
lowerneck -15.671 -0.735991 -5.78551
upperneck 4.839 -0.768255 10.2235
head 4.05824 0.099462 4.06391
rclavicle 1.20066e-013 -3.97569e-014
rhumerus -35.7214 -42.1203 -21.0048
rradius 70.3076
rwrist -31.9629
rhand -24.0259 7.81999
rfingers 7.12502
rthumb 2.45232 -22.1457
lclavicle 1.20066e-013 -3.97569e-014
lhumerus 34.9189 13.6861 75.2926
lradius 134.552
lwrist 35.8344
lhand -24.6605 12.6848
lfingers 7.12502
lthumb 1.83945 42.6566
rfemur -64.2461 -4.48603 5.44384
rtibia 109.691
rfoot -9.0123 -8.67448
rtoes -6.14171
lfemur -2.29087 2.15642 -25.0298
ltibia 21.9846
lfoot -13.3169 11.3483
ltoes 7.0822
3594
root 0.052549 18.8042 2.66356 -7.25485 12.5693 -1.1477
lowerback 17.9224 -6.59898 -8.1497
upperback 7.56519 -9.89443 1.30463
thorax -0.111256 -5.2051 7.53474
lowerneck -15.5973 -0.809509 -5.77509
upperneck 5.14191 -0.880455 10.0891
head 4.14663 0.0395156 4.01315
rclavicle 2.20651e-014 -4.09496e-014
rhumerus -35.7712 -42.2002 -20.5823
rradius 70.5668
rwrist -32.2426
rhand -23.8911 7.7382
rfingers 7.12502
rthumb 2.58256 -22.2259
lclavicle 2.20651e-014 -4.09496e-014
lhumerus 34.4307 14.3026 74.0407
lradius 133.916
lwrist 35.6536
lhand -24.6748 12.9763
lfingers 7.12502
lthumb 1.82565 42.9482
rfemur -61.76 -3.94418 5.12823
rtibia 108.084
rfoot -9.21809 -8.994
rtoes -6.47608
lfemur -2.04253 1.86681 -24.9683
ltibia 22.1802
lfoot -13.5922 11.5578
ltoes 6.79253
3595
root 0.031872 18.7993 2.69802 -7.414 12.6559 -1.23166
lowerback 17.6341 -6.58447 -8.00676
upperback 7.3233 -9.84509 1.27811
thorax -0.26679 -5.1589 7.40548
lowerneck -15.2372 -0.842546 -5.70084
upperneck 5.45662 -0.975797 10.0972
head 4.19266 -0.0094438 3.99624
rclavicle -9.52179e-014 9.54166e-015
rhumerus -36.0975 -42.2963 -20.0243
rradius 70.7798
rwrist -32.3403
rhand -23.9721 7.72661
rfingers 7.12502
rthumb 2.50431 -22.2384
lclavicle -9.52179e-014 9.54166e-015
lhumerus 33.738 14.729 72.6221
lradius 133.244
lwrist 35.4311
lhand -24.9019 13.2063
lfingers 7.12502
lthumb 1.60629 43.18
rfemur -59.334 -3.3221 4.93244
rtibia 106.369
rfoot -9.33641 -9.3386
rtoes -6.29106
lfemur -1.8773 1.36226 -24.8806
ltibia 22.3978
lfoot -13.9925 11.9829
ltoes 6.98067
3596
root 0.0107425 18.796 2.7312 -7.52731 12.6811 -1.31758
lowerback 17.2781 -6.52317 -7.91634
upperback 7.05523 -9.73939 1.2728
thorax -0.410404 -5.08687 7.31289
lowerneck -14.7625 -0.859808 -5.6375
upperneck 5.75497 -1.05342 10.136
head 4.21371 -0.051169 3.99145
rclavicle -8.24956e-014 1.27222e-014
rhumerus -36.5153 -42.3966 -19.3885
rradius 70.9888
rwrist -32.4547
rhand -24.2149 7.96466
rfingers 7.12502
rthumb 2.26985 -22.003
lclavicle -8.24956e-014 1.27222e-014
lhumerus 32.9444 15.117 71.1997
lradius 132.497
lwrist 35.4098
lhand -24.9879 12.8509
lfingers 7.12502
lthumb 1.5233 42.8252
rfemur -56.9802 -2.60163 4.77696
rtibia 104.561
rfoot -9.39418 -9.55947
rtoes -5.81177
lfemur -1.77711 0.99241 -24.7698
ltibia 22.6455
lfoot -14.3998 12.3208
ltoes 7.21399
3597
root -0.0108878 18.7895 2.7687 -7.61879 12.7787 -1.2896
lowerback 16.7747 -6.43907 -8.02188
upperback 6.85497 -9.62072 1.30166
thorax -0.362453 -5.02724 7.33195
lowerneck -14.2742 -0.903656 -5.67443
upperneck 5.9223 -1.13903 10.1792
head 4.19313 -0.101408 4.0029
rclavicle 2.54444e-014 1.63003e-014
rhumerus -36.8894 -42.56 -18.656
rradius 71.2279
rwrist -32.6856
rhand -24.2539 7.86959
rfingers 7.12502
rthumb 2.23216 -22.0985
lclavicle 2.54444e-014 1.63003e-014
lhumerus 32.1922 15.4968 69.8654
lradius 131.745
lwrist 35.6258
lhand -25.0208 12.3748
lfingers 7.12502
lthumb 1.49148 42.3493
rfemur -54.5734 -1.95305 4.51863
rtibia 102.716
rfoot -9.54909 -9.69221
rtoes -6.12866
lfemur -1.69617 0.935611 -24.7196
ltibia 22.9508
lfoot -14.6307 12.2677
ltoes 6.76521
3598
root -0.0350551 18.7754 2.80384 -7.66884 13.022 -1.12384
lowerback 16.4084 -6.41152 -8.24316
upperback 6.66245 -9.60158 1.30645
thorax -0.342123 -5.01778 7.41838
lowerneck -14.0861 -0.983342 -5.86345
upperneck 6.10805 -1.25021 10.3696
head 4.23147 -0.151576 4.08668
rclavicle -1.0138e-013 -6.36111e-015
rhumerus -37.0503 -42.8376 -18.077
rradius 71.4849
rwrist -32.8297
rhand -24.1741 7.4942
rfingers 7.12502
rthumb 2.30919 -22.4731
lclavicle -1.0138e-013 -6.36111e-015
lhumerus 31.5327 16.0006 68.5087
lradius 131.08
lwrist 35.9001
lhand -25.2085 12.607
lfingers 7.12502
lthumb 1.3102 42.5828
rfemur -52.1745 -1.48745 4.09745
rtibia 100.854
rfoot -9.65601 -9.74406
rtoes -6.16235
lfemur -1.68949 0.93044 -24.7993
ltibia 23.3064
lfoot -14.7053 12.0593
ltoes 6.07611
3599
root -0.0606024 18.7628 2.83732 -7.74733 13.2039 -1.12303
lowerback 16.1366 -6.44093 -8.29161
upperback 6.55402 -9.63144 1.40868
thorax -0.283248 -5.03668 7.52535
lowerneck -14.4743 -1.10778 -6.21275
upperneck 6.51808 -1.38191 10.5217
head 4.43489 -0.199579 4.18961
rclavicle 1.05903e-013 2.78299e-015
rhumerus -36.7688 -43.2483 -17.7968
rradius 71.7498
rwrist -32.9368
rhand -24.539 7.47411
rfingers 7.12502
rthumb 1.95685 -22.4967
lclavicle 1.05903e-013 2.78299e-015
lhumerus 30.9096 16.7257 67.1833
lradius 130.493
lwrist 36.162
lhand -25.4112 13.2573
lfingers 7.12502
lthumb 1.11444 43.2342
rfemur -49.8282 -0.865193 3.94174
rtibia 98.8921
rfoot -9.65557 -9.94239
rtoes -6.16834
lfemur -1.70363 0.807494 -24.7149
ltibia 23.6863
lfoot -14.9181 11.9646
ltoes 5.86422
3600
root -0.0877156 18.7532 2.87367 -7.79899 13.2782 -1.17249
lowerback 15.6918 -6.39549 -8.30525
upperback 6.33891 -9.55131 1.43889
thorax -0.288857 -4.99019 7.51185
lowerneck -14.0424 -1.17116 -6.15669
upperneck 6.68493 -1.50306 10.4715
head 4.42471 -0.269453 4.15386
rclavicle -1.38155e-014 -2.18663e-014
rhumerus -36.9642 -43.3227 -17.2588
rradius 72.0377
rwrist -33.0653
rhand -24.937 7.71626
rfingers 7.12502
rthumb 1.57239 -22.2577
lclavicle -1.38155e-014 -2.18663e-014
lhumerus 30.0395 17.1079 65.7418
lradius 129.821
lwrist 36.3311
lhand -25.3211 13.5968
lfingers 7.12502
lthumb 1.20141 43.5732
rfemur -47.546 -0.096953 3.93475
rtibia 96.8305
rfoot -9.80113 -10.1602
rtoes -6.31067
lfemur -1.75113 0.712471 -24.5573
ltibia 24.0698
lfoot -15.1737 11.91
ltoes 5.83246
3601
root -0.115022 18.7468 2.91203 -7.81269 13.3178 -1.34535
lowerback 15.1836 -6.36382 -8.17195
upperback 6.13433 -9.46248 1.50089
thorax -0.270254 -4.9386 7.44223
lowerneck -13.741 -1.22055 -6.1658
upperneck 6.83944 -1.59824 10.5317
head 4.43149 -0.318442 4.16702
rclavicle 4.77083e-015 -8.74653e-015
rhumerus -37.1573 -43.4889 -16.6971
rradius 72.34
rwrist -33.2361
rhand -24.7705 7.69301
rfingers 7.12502
rthumb 1.73322 -22.2797
lclavicle 4.77083e-015 -8.74653e-015
lhumerus 29.158 17.5021 64.3162
lradius 129.169
lwrist 36.546
lhand -25.2055 13.9444
lfingers 7.12502
lthumb 1.3131 43.9201
rfemur -45.3083 0.690281 4.1404
rtibia 94.6749
rfoot -9.87427 -10.3943
rtoes -6.26672
lfemur -1.85797 0.682655 -24.2422
ltibia 24.4345
lfoot -15.4374 11.7504
ltoes 5.70814
3602
root -0.144413 18.7412 2.94973 -7.83076 13.3253 -1.44351
lowerback 14.7653 -6.29043 -8.14314
upperback 5.95955 -9.33896 1.54989
thorax -0.255956 -4.87234 7.42301
lowerneck -13.6617 -1.28146 -6.17816
upperneck 7.0504 -1.70459 10.6005
head 4.49318 -0.365627 4.18441
rclavicle 9.84481e-014 -2.98177e-014
rhumerus -37.3884 -43.6186 -16.1456
rradius 72.7283
rwrist -33.5985
rhand -24.7085 7.77034
rfingers 7.12502
rthumb 1.79314 -22.2019
lclavicle 9.84481e-014 -2.98177e-014
lhumerus 28.3045 17.8791 62.9358
lradius 128.579
lwrist 36.8251
lhand -25.0161 14.4308
lfingers 7.12502
lthumb 1.49598 44.4053
rfemur -43.1102 1.50942 4.33471
rtibia 92.4591
rfoot -9.79627 -10.6931
rtoes -6.259
lfemur -1.92398 0.697656 -23.9906
ltibia 24.7562
lfoot -15.6437 11.6075
ltoes 5.4922
